<svg xmlns="http://www.w3.org/2000/svg" width="85.719" height="85.719" viewBox="0 0 85.719 85.719">
  <defs>
    <style>
      .cls-1 {
        fill: #4a4a4a;
        fill-rule: evenodd;
      }
    </style>
  </defs>
  <path id="info" class="cls-1" d="M63.956,77.878a1.739,1.739,0,0,1-1.283.5h-25a1.719,1.719,0,0,1-1.786-1.786V67.666a1.719,1.719,0,0,1,1.786-1.786H43.03V48.023H37.673a1.719,1.719,0,0,1-1.786-1.786V37.309a1.719,1.719,0,0,1,1.786-1.786H55.53a1.719,1.719,0,0,1,1.786,1.786V65.881h5.357a1.719,1.719,0,0,1,1.786,1.786v8.929A1.737,1.737,0,0,1,63.956,77.878Zm-7.143-50a1.738,1.738,0,0,1-1.284.5H44.815a1.719,1.719,0,0,1-1.786-1.786V17.666a1.719,1.719,0,0,1,1.786-1.786H55.53a1.719,1.719,0,0,1,1.786,1.786v8.929A1.737,1.737,0,0,1,56.813,27.878ZM71.685,12.7A41.931,41.931,0,0,0,50.173,6.952,41.927,41.927,0,0,0,28.66,12.7a42.664,42.664,0,0,0-15.6,15.6A41.923,41.923,0,0,0,7.315,49.809a41.918,41.918,0,0,0,5.748,21.512,42.651,42.651,0,0,0,15.6,15.6,41.926,41.926,0,0,0,21.512,5.748,41.931,41.931,0,0,0,21.512-5.748,42.663,42.663,0,0,0,15.6-15.6A41.926,41.926,0,0,0,93.03,49.809,41.931,41.931,0,0,0,87.282,28.3,42.676,42.676,0,0,0,71.685,12.7Z" transform="translate(-7.313 -6.938)"/>
</svg>
